<svg width="152" height="45" viewBox="0 0 152 45" fill="none" xmlns="http://www.w3.org/2000/svg">
<rect x="0.5" y="0.5" width="151" height="44" rx="11.5" fill="white" stroke="#989898"/>
<path d="M53.8374 18.0739C53.5419 18.0739 53.2811 17.9992 53.0549 17.85C52.8287 17.6992 52.6517 17.4868 52.524 17.2129C52.3962 16.9374 52.3324 16.612 52.3324 16.2365C52.3324 15.8641 52.3962 15.541 52.524 15.267C52.6517 14.9931 52.8294 14.7815 53.0572 14.6323C53.2849 14.483 53.5481 14.4084 53.8466 14.4084C54.0774 14.4084 54.2598 14.4469 54.3936 14.5238C54.5291 14.5992 54.6322 14.6854 54.7029 14.7823C54.7753 14.8777 54.8314 14.9562 54.8714 15.0178H54.9176V13.2727H55.4624V18H54.9361V17.4553H54.8714C54.8314 17.5199 54.7745 17.6014 54.7006 17.6999C54.6268 17.7969 54.5214 17.8838 54.3844 17.9608C54.2475 18.0362 54.0651 18.0739 53.8374 18.0739ZM53.9112 17.5845C54.1297 17.5845 54.3144 17.5276 54.4652 17.4137C54.616 17.2983 54.7306 17.139 54.8091 16.9359C54.8876 16.7312 54.9268 16.495 54.9268 16.2273C54.9268 15.9626 54.8884 15.731 54.8114 15.5325C54.7345 15.3324 54.6206 15.177 54.4698 15.0662C54.319 14.9539 54.1328 14.8977 53.9112 14.8977C53.6804 14.8977 53.488 14.957 53.3342 15.0755C53.1818 15.1924 53.0672 15.3517 52.9902 15.5533C52.9148 15.7533 52.8771 15.978 52.8771 16.2273C52.8771 16.4796 52.9156 16.7089 52.9925 16.9151C53.071 17.1198 53.1864 17.2829 53.3388 17.4045C53.4927 17.5245 53.6835 17.5845 53.9112 17.5845ZM57.976 18.0739C57.656 18.0739 57.3751 17.9977 57.1335 17.8453C56.8935 17.693 56.7057 17.4799 56.5703 17.206C56.4364 16.9321 56.3695 16.612 56.3695 16.2457C56.3695 15.8764 56.4364 15.554 56.5703 15.2786C56.7057 15.0031 56.8935 14.7892 57.1335 14.6369C57.3751 14.4846 57.656 14.4084 57.976 14.4084C58.2961 14.4084 58.5762 14.4846 58.8162 14.6369C59.0578 14.7892 59.2456 15.0031 59.3794 15.2786C59.5149 15.554 59.5826 15.8764 59.5826 16.2457C59.5826 16.612 59.5149 16.9321 59.3794 17.206C59.2456 17.4799 59.0578 17.693 58.8162 17.8453C58.5762 17.9977 58.2961 18.0739 57.976 18.0739ZM57.976 17.5845C58.2192 17.5845 58.4192 17.5222 58.5762 17.3975C58.7331 17.2729 58.8493 17.109 58.9247 16.9059C59.0001 16.7028 59.0378 16.4827 59.0378 16.2457C59.0378 16.0088 59.0001 15.7879 58.9247 15.5833C58.8493 15.3786 58.7331 15.2132 58.5762 15.087C58.4192 14.9608 58.2192 14.8977 57.976 14.8977C57.7329 14.8977 57.5328 14.9608 57.3759 15.087C57.2189 15.2132 57.1027 15.3786 57.0273 15.5833C56.9519 15.7879 56.9142 16.0088 56.9142 16.2457C56.9142 16.4827 56.9519 16.7028 57.0273 16.9059C57.1027 17.109 57.2189 17.2729 57.3759 17.3975C57.5328 17.5222 57.7329 17.5845 57.976 17.5845ZM61.0968 18L60.0165 14.4545H60.589L61.3553 17.169H61.3922L62.1493 14.4545H62.731L63.4789 17.1598H63.5158L64.2821 14.4545H64.8546L63.7743 18H63.2388L62.4632 15.2763H62.4078L61.6323 18H61.0968ZM66.1195 15.8672V18H65.5748V14.4545H66.101V15.0085H66.1472C66.2303 14.8285 66.3565 14.6838 66.5257 14.5746C66.695 14.4638 66.9135 14.4084 67.1813 14.4084C67.4213 14.4084 67.6314 14.4576 67.8114 14.5561C67.9915 14.6531 68.1315 14.8008 68.2315 14.9993C68.3316 15.1963 68.3816 15.4455 68.3816 15.7472V18H67.8368V15.7841C67.8368 15.5056 67.7645 15.2886 67.6199 15.1332C67.4752 14.9762 67.2767 14.8977 67.0243 14.8977C66.8504 14.8977 66.695 14.9354 66.5581 15.0108C66.4226 15.0862 66.3157 15.1963 66.2372 15.3409C66.1587 15.4856 66.1195 15.661 66.1195 15.8672ZM69.9217 13.2727V18H69.377V13.2727H69.9217ZM72.3598 18.0739C72.0397 18.0739 71.7589 17.9977 71.5173 17.8453C71.2773 17.693 71.0895 17.4799 70.9541 17.206C70.8202 16.9321 70.7533 16.612 70.7533 16.2457C70.7533 15.8764 70.8202 15.554 70.9541 15.2786C71.0895 15.0031 71.2773 14.7892 71.5173 14.6369C71.7589 14.4846 72.0397 14.4084 72.3598 14.4084C72.6799 14.4084 72.96 14.4846 73.2 14.6369C73.4416 14.7892 73.6294 15.0031 73.7632 15.2786C73.8986 15.554 73.9664 15.8764 73.9664 16.2457C73.9664 16.612 73.8986 16.9321 73.7632 17.206C73.6294 17.4799 73.4416 17.693 73.2 17.8453C72.96 17.9977 72.6799 18.0739 72.3598 18.0739ZM72.3598 17.5845C72.603 17.5845 72.803 17.5222 72.96 17.3975C73.1169 17.2729 73.2331 17.109 73.3085 16.9059C73.3839 16.7028 73.4216 16.4827 73.4216 16.2457C73.4216 16.0088 73.3839 15.7879 73.3085 15.5833C73.2331 15.3786 73.1169 15.2132 72.96 15.087C72.803 14.9608 72.603 14.8977 72.3598 14.8977C72.1167 14.8977 71.9166 14.9608 71.7597 15.087C71.6027 15.2132 71.4865 15.3786 71.4111 15.5833C71.3357 15.7879 71.298 16.0088 71.298 16.2457C71.298 16.4827 71.3357 16.7028 71.4111 16.9059C71.4865 17.109 71.6027 17.2729 71.7597 17.3975C71.9166 17.5222 72.1167 17.5845 72.3598 17.5845ZM75.8412 18.0831C75.6166 18.0831 75.4127 18.0408 75.2295 17.9561C75.0464 17.87 74.901 17.7461 74.7933 17.5845C74.6856 17.4214 74.6317 17.2244 74.6317 16.9936C74.6317 16.7905 74.6717 16.6258 74.7517 16.4996C74.8318 16.3719 74.9387 16.2719 75.0726 16.1996C75.2065 16.1272 75.3542 16.0734 75.5158 16.038C75.6789 16.0011 75.8428 15.9718 76.0074 15.9503C76.2228 15.9226 76.3975 15.9018 76.5314 15.888C76.6668 15.8726 76.7653 15.8472 76.8268 15.8118C76.8899 15.7764 76.9215 15.7148 76.9215 15.6271V15.6087C76.9215 15.3809 76.8592 15.204 76.7345 15.0778C76.6114 14.9516 76.4244 14.8885 76.1736 14.8885C75.9135 14.8885 75.7097 14.9454 75.5619 15.0593C75.4142 15.1732 75.3103 15.2947 75.2503 15.424L74.7333 15.2393C74.8256 15.0239 74.9487 14.8562 75.1026 14.7362C75.258 14.6146 75.4273 14.5299 75.6104 14.4822C75.7951 14.433 75.9766 14.4084 76.1551 14.4084C76.269 14.4084 76.3998 14.4222 76.5475 14.4499C76.6968 14.4761 76.8407 14.5307 76.9792 14.6138C77.1192 14.6969 77.2354 14.8223 77.3277 14.9901C77.4201 15.1578 77.4662 15.3825 77.4662 15.6641V18H76.9215V17.5199H76.8938C76.8568 17.5968 76.7953 17.6792 76.7091 17.7669C76.6229 17.8546 76.5083 17.9292 76.3652 17.9908C76.2221 18.0523 76.0474 18.0831 75.8412 18.0831ZM75.9243 17.5938C76.1398 17.5938 76.3213 17.5514 76.4691 17.4668C76.6183 17.3822 76.7307 17.2729 76.8061 17.139C76.883 17.0051 76.9215 16.8643 76.9215 16.7166V16.218C76.8984 16.2457 76.8476 16.2711 76.7691 16.2942C76.6922 16.3158 76.6029 16.335 76.5014 16.3519C76.4014 16.3673 76.3036 16.3812 76.2082 16.3935C76.1144 16.4042 76.0382 16.4135 75.9797 16.4212C75.8381 16.4396 75.7058 16.4696 75.5827 16.5112C75.4611 16.5512 75.3626 16.612 75.2872 16.6935C75.2134 16.7736 75.1764 16.8828 75.1764 17.0213C75.1764 17.2106 75.2465 17.3537 75.3865 17.4506C75.5281 17.546 75.7073 17.5938 75.9243 17.5938ZM79.7993 18.0739C79.5038 18.0739 79.243 17.9992 79.0168 17.85C78.7906 17.6992 78.6136 17.4868 78.4859 17.2129C78.3582 16.9374 78.2943 16.612 78.2943 16.2365C78.2943 15.8641 78.3582 15.541 78.4859 15.267C78.6136 14.9931 78.7913 14.7815 79.0191 14.6323C79.2468 14.483 79.51 14.4084 79.8085 14.4084C80.0393 14.4084 80.2217 14.4469 80.3556 14.5238C80.491 14.5992 80.5941 14.6854 80.6649 14.7823C80.7372 14.8777 80.7934 14.9562 80.8334 15.0178H80.8795V13.2727H81.4243V18H80.898V17.4553H80.8334C80.7934 17.5199 80.7364 17.6014 80.6626 17.6999C80.5887 17.7969 80.4833 17.8838 80.3463 17.9608C80.2094 18.0362 80.027 18.0739 79.7993 18.0739ZM79.8731 17.5845C80.0916 17.5845 80.2763 17.5276 80.4271 17.4137C80.5779 17.2983 80.6926 17.139 80.771 16.9359C80.8495 16.7312 80.8888 16.495 80.8888 16.2273C80.8888 15.9626 80.8503 15.731 80.7733 15.5325C80.6964 15.3324 80.5825 15.177 80.4317 15.0662C80.2809 14.9539 80.0947 14.8977 79.8731 14.8977C79.6423 14.8977 79.45 14.957 79.2961 15.0755C79.1437 15.1924 79.0291 15.3517 78.9521 15.5533C78.8767 15.7533 78.839 15.978 78.839 16.2273C78.839 16.4796 78.8775 16.7089 78.9545 16.9151C79.0329 17.1198 79.1483 17.2829 79.3007 17.4045C79.4546 17.5245 79.6454 17.5845 79.8731 17.5845ZM85.7661 18.0739C85.446 18.0739 85.1652 17.9977 84.9236 17.8453C84.6835 17.693 84.4958 17.4799 84.3604 17.206C84.2265 16.9321 84.1595 16.612 84.1595 16.2457C84.1595 15.8764 84.2265 15.554 84.3604 15.2786C84.4958 15.0031 84.6835 14.7892 84.9236 14.6369C85.1652 14.4846 85.446 14.4084 85.7661 14.4084C86.0861 14.4084 86.3662 14.4846 86.6063 14.6369C86.8479 14.7892 87.0356 15.0031 87.1695 15.2786C87.3049 15.554 87.3726 15.8764 87.3726 16.2457C87.3726 16.612 87.3049 16.9321 87.1695 17.206C87.0356 17.4799 86.8479 17.693 86.6063 17.8453C86.3662 17.9977 86.0861 18.0739 85.7661 18.0739ZM85.7661 17.5845C86.0092 17.5845 86.2093 17.5222 86.3662 17.3975C86.5232 17.2729 86.6394 17.109 86.7148 16.9059C86.7902 16.7028 86.8279 16.4827 86.8279 16.2457C86.8279 16.0088 86.7902 15.7879 86.7148 15.5833C86.6394 15.3786 86.5232 15.2132 86.3662 15.087C86.2093 14.9608 86.0092 14.8977 85.7661 14.8977C85.5229 14.8977 85.3229 14.9608 85.1659 15.087C85.009 15.2132 84.8928 15.3786 84.8174 15.5833C84.742 15.7879 84.7043 16.0088 84.7043 16.2457C84.7043 16.4827 84.742 16.7028 84.8174 16.9059C84.8928 17.109 85.009 17.2729 85.1659 17.3975C85.3229 17.5222 85.5229 17.5845 85.7661 17.5845ZM88.7489 15.8672V18H88.2041V14.4545H88.7304V15.0085H88.7766C88.8597 14.8285 88.9859 14.6838 89.1551 14.5746C89.3244 14.4638 89.5429 14.4084 89.8107 14.4084C90.0507 14.4084 90.2608 14.4576 90.4408 14.5561C90.6209 14.6531 90.7609 14.8008 90.8609 14.9993C90.961 15.1963 91.011 15.4455 91.011 15.7472V18H90.4662V15.7841C90.4662 15.5056 90.3939 15.2886 90.2492 15.1332C90.1046 14.9762 89.9061 14.8977 89.6537 14.8977C89.4798 14.8977 89.3244 14.9354 89.1875 15.0108C89.052 15.0862 88.9451 15.1963 88.8666 15.3409C88.7881 15.4856 88.7489 15.661 88.7489 15.8672ZM95.3764 14.4545V14.9162H93.5391V14.4545H95.3764ZM94.0746 13.6051H94.6193V16.9844C94.6193 17.1383 94.6416 17.2537 94.6863 17.3306C94.7324 17.406 94.7909 17.4568 94.8617 17.483C94.934 17.5076 95.0102 17.5199 95.0902 17.5199C95.1502 17.5199 95.1995 17.5168 95.2379 17.5107C95.2764 17.503 95.3072 17.4968 95.3303 17.4922L95.4411 17.9815C95.4041 17.9954 95.3526 18.0092 95.2864 18.0231C95.2202 18.0385 95.1364 18.0462 95.0348 18.0462C94.8809 18.0462 94.7301 18.0131 94.5824 17.9469C94.4362 17.8807 94.3146 17.7799 94.2177 17.6445C94.1223 17.5091 94.0746 17.3383 94.0746 17.1321V13.6051ZM96.8168 15.8672V18H96.272V13.2727H96.8168V15.0085H96.8629C96.946 14.8254 97.0707 14.68 97.2369 14.5723C97.4046 14.463 97.6277 14.4084 97.9062 14.4084C98.1478 14.4084 98.3594 14.4569 98.541 14.5538C98.7226 14.6492 98.8634 14.7962 98.9634 14.9947C99.065 15.1916 99.1158 15.4425 99.1158 15.7472V18H98.571V15.7841C98.571 15.5025 98.4979 15.2847 98.3517 15.1309C98.2071 14.9754 98.0063 14.8977 97.7493 14.8977C97.5708 14.8977 97.4107 14.9354 97.2692 15.0108C97.1291 15.0862 97.0183 15.1963 96.9368 15.3409C96.8568 15.4856 96.8168 15.661 96.8168 15.8672ZM101.599 18.0739C101.257 18.0739 100.963 17.9985 100.715 17.8477C100.469 17.6953 100.279 17.483 100.145 17.2106C100.012 16.9367 99.9462 16.6181 99.9462 16.255C99.9462 15.8918 100.012 15.5717 100.145 15.2947C100.279 15.0162 100.465 14.7992 100.703 14.6438C100.943 14.4869 101.223 14.4084 101.543 14.4084C101.728 14.4084 101.91 14.4392 102.091 14.5007C102.271 14.5623 102.434 14.6623 102.582 14.8008C102.73 14.9377 102.848 15.1193 102.935 15.3455C103.023 15.5717 103.067 15.8503 103.067 16.1811V16.4119H100.334V15.9411H102.513C102.513 15.741 102.473 15.5625 102.393 15.4055C102.314 15.2486 102.202 15.1247 102.056 15.0339C101.911 14.9431 101.74 14.8977 101.543 14.8977C101.326 14.8977 101.139 14.9516 100.98 15.0593C100.823 15.1655 100.702 15.304 100.618 15.4748C100.533 15.6456 100.491 15.8287 100.491 16.0241V16.3381C100.491 16.6058 100.537 16.8328 100.629 17.019C100.723 17.2037 100.853 17.3445 101.019 17.4414C101.186 17.5368 101.379 17.5845 101.599 17.5845C101.742 17.5845 101.871 17.5645 101.987 17.5245C102.104 17.483 102.204 17.4214 102.289 17.3398C102.374 17.2567 102.439 17.1536 102.485 17.0305L103.011 17.1783C102.956 17.3568 102.863 17.5137 102.732 17.6491C102.601 17.783 102.44 17.8877 102.247 17.9631C102.055 18.0369 101.839 18.0739 101.599 18.0739Z" fill="black"/>
<path d="M53.1467 32H51.3185L54.647 22.5455H56.7614L60.0945 32H58.2663L55.7411 24.4844H55.6673L53.1467 32ZM53.2067 28.293H58.1925V29.6687H53.2067V28.293ZM61.2659 34.6591V24.9091H62.9094V26.0817H63.0063C63.0925 25.9093 63.214 25.7262 63.371 25.5323C63.528 25.3353 63.7403 25.1676 64.0081 25.0291C64.2758 24.8875 64.6175 24.8168 65.0329 24.8168C65.5808 24.8168 66.0747 24.9568 66.5148 25.2369C66.958 25.5138 67.3089 25.9247 67.5674 26.4695C67.829 27.0111 67.9598 27.6759 67.9598 28.4638C67.9598 29.2424 67.8321 29.9041 67.5766 30.4489C67.3212 30.9936 66.9734 31.4091 66.5333 31.6953C66.0932 31.9815 65.5946 32.1246 65.0376 32.1246C64.6313 32.1246 64.2943 32.0569 64.0265 31.9215C63.7588 31.7861 63.5434 31.623 63.3802 31.4322C63.2202 31.2383 63.0956 31.0552 63.0063 30.8828H62.9371V34.6591H61.2659ZM62.9047 28.4545C62.9047 28.9131 62.9694 29.3147 63.0986 29.6594C63.231 30.0041 63.4202 30.2734 63.6665 30.4673C63.9157 30.6581 64.2174 30.7536 64.5713 30.7536C64.9406 30.7536 65.2499 30.6551 65.4992 30.4581C65.7485 30.258 65.9362 29.9857 66.0624 29.641C66.1917 29.2932 66.2563 28.8977 66.2563 28.4545C66.2563 28.0144 66.1932 27.6236 66.067 27.282C65.9408 26.9403 65.7531 26.6726 65.5038 26.4787C65.2545 26.2848 64.9437 26.1879 64.5713 26.1879C64.2143 26.1879 63.9111 26.2817 63.6618 26.4695C63.4126 26.6572 63.2233 26.9203 63.094 27.2589C62.9678 27.5974 62.9047 27.996 62.9047 28.4545ZM69.3909 34.6591V24.9091H71.0344V26.0817H71.1313C71.2175 25.9093 71.339 25.7262 71.496 25.5323C71.653 25.3353 71.8653 25.1676 72.1331 25.0291C72.4008 24.8875 72.7425 24.8168 73.1579 24.8168C73.7058 24.8168 74.1997 24.9568 74.6398 25.2369C75.083 25.5138 75.4339 25.9247 75.6924 26.4695C75.954 27.0111 76.0848 27.6759 76.0848 28.4638C76.0848 29.2424 75.9571 29.9041 75.7016 30.4489C75.4462 30.9936 75.0984 31.4091 74.6583 31.6953C74.2182 31.9815 73.7196 32.1246 73.1626 32.1246C72.7563 32.1246 72.4193 32.0569 72.1515 31.9215C71.8838 31.7861 71.6684 31.623 71.5052 31.4322C71.3452 31.2383 71.2206 31.0552 71.1313 30.8828H71.0621V34.6591H69.3909ZM71.0297 28.4545C71.0297 28.9131 71.0944 29.3147 71.2236 29.6594C71.356 30.0041 71.5452 30.2734 71.7915 30.4673C72.0407 30.6581 72.3424 30.7536 72.6963 30.7536C73.0656 30.7536 73.3749 30.6551 73.6242 30.4581C73.8735 30.258 74.0612 29.9857 74.1874 29.641C74.3167 29.2932 74.3813 28.8977 74.3813 28.4545C74.3813 28.0144 74.3182 27.6236 74.192 27.282C74.0658 26.9403 73.8781 26.6726 73.6288 26.4787C73.3795 26.2848 73.0687 26.1879 72.6963 26.1879C72.3393 26.1879 72.0361 26.2817 71.7868 26.4695C71.5376 26.6572 71.3483 26.9203 71.219 27.2589C71.0928 27.5974 71.0297 27.996 71.0297 28.4545ZM85.9525 25.1445C85.9094 24.7414 85.7278 24.4274 85.4078 24.2028C85.0908 23.9781 84.6784 23.8658 84.1705 23.8658C83.8135 23.8658 83.5073 23.9196 83.2519 24.0273C82.9964 24.1351 82.801 24.2812 82.6656 24.4659C82.5302 24.6506 82.4609 24.8614 82.4578 25.0984C82.4578 25.2953 82.5025 25.4661 82.5917 25.6108C82.684 25.7554 82.8087 25.8786 82.9656 25.9801C83.1226 26.0786 83.2965 26.1617 83.4873 26.2294C83.6781 26.2971 83.8705 26.354 84.0644 26.4002L84.9507 26.6218C85.3077 26.7049 85.6509 26.8172 85.9802 26.9588C86.3126 27.1004 86.6096 27.2789 86.8712 27.4943C87.1359 27.7098 87.3451 27.9698 87.499 28.2745C87.6529 28.5792 87.7298 28.9362 87.7298 29.3455C87.7298 29.8995 87.5883 30.3873 87.3051 30.8089C87.022 31.2275 86.6127 31.5553 86.0771 31.7923C85.5447 32.0262 84.8999 32.1431 84.1428 32.1431C83.4073 32.1431 82.7687 32.0292 82.227 31.8015C81.6884 31.5737 81.2668 31.2414 80.9621 30.8043C80.6605 30.3673 80.4974 29.8349 80.4727 29.207H82.1578C82.1824 29.5363 82.2839 29.8103 82.4624 30.0288C82.641 30.2473 82.8733 30.4104 83.1595 30.5181C83.4488 30.6258 83.772 30.6797 84.129 30.6797C84.5014 30.6797 84.8276 30.6243 85.1077 30.5135C85.3908 30.3996 85.6124 30.2427 85.7725 30.0426C85.9325 29.8395 86.0141 29.6025 86.0171 29.3317C86.0141 29.0855 85.9417 28.8823 85.8002 28.7223C85.6586 28.5592 85.4601 28.4238 85.2046 28.3161C84.9523 28.2053 84.6568 28.1068 84.3183 28.0206L83.2426 27.7436C82.464 27.5436 81.8485 27.2404 81.396 26.8342C80.9467 26.4248 80.722 25.8816 80.722 25.2045C80.722 24.6475 80.8728 24.1597 81.1744 23.7411C81.4791 23.3226 81.8931 22.9979 82.4163 22.767C82.9395 22.5331 83.5319 22.4162 84.1936 22.4162C84.8646 22.4162 85.4524 22.5331 85.9571 22.767C86.4649 22.9979 86.8635 23.3195 87.1528 23.7319C87.4421 24.1412 87.5914 24.6121 87.6006 25.1445H85.9525ZM92.7237 24.9091V26.2017H88.6474V24.9091H92.7237ZM89.6538 23.2102H91.3249V29.8672C91.3249 30.0919 91.3588 30.2642 91.4265 30.3842C91.4973 30.5012 91.5896 30.5812 91.7035 30.6243C91.8174 30.6674 91.9435 30.6889 92.082 30.6889C92.1867 30.6889 92.2821 30.6812 92.3683 30.6658C92.4575 30.6504 92.5252 30.6366 92.5714 30.6243L92.853 31.9308C92.7637 31.9615 92.636 31.9954 92.4698 32.0323C92.3067 32.0692 92.1067 32.0908 91.8697 32.0969C91.4511 32.1093 91.0741 32.0462 90.7386 31.9077C90.4032 31.7661 90.137 31.5476 89.94 31.2521C89.7461 30.9567 89.6507 30.5874 89.6538 30.1442V23.2102ZM97.1382 32.1385C96.4458 32.1385 95.8456 31.9862 95.3378 31.6815C94.83 31.3768 94.4361 30.9505 94.156 30.4027C93.879 29.8549 93.7405 29.2147 93.7405 28.4822C93.7405 27.7498 93.879 27.1081 94.156 26.5572C94.4361 26.0063 94.83 25.5785 95.3378 25.2738C95.8456 24.9691 96.4458 24.8168 97.1382 24.8168C97.8307 24.8168 98.4308 24.9691 98.9387 25.2738C99.4465 25.5785 99.8389 26.0063 100.116 26.5572C100.396 27.1081 100.536 27.7498 100.536 28.4822C100.536 29.2147 100.396 29.8549 100.116 30.4027C99.8389 30.9505 99.4465 31.3768 98.9387 31.6815C98.4308 31.9862 97.8307 32.1385 97.1382 32.1385ZM97.1475 30.7997C97.5229 30.7997 97.8369 30.6966 98.0892 30.4904C98.3416 30.2811 98.5293 30.0011 98.6524 29.6502C98.7786 29.2994 98.8417 28.9085 98.8417 28.4776C98.8417 28.0437 98.7786 27.6513 98.6524 27.3004C98.5293 26.9465 98.3416 26.6649 98.0892 26.4556C97.8369 26.2463 97.5229 26.1417 97.1475 26.1417C96.7628 26.1417 96.4427 26.2463 96.1872 26.4556C95.9349 26.6649 95.7456 26.9465 95.6194 27.3004C95.4963 27.6513 95.4347 28.0437 95.4347 28.4776C95.4347 28.9085 95.4963 29.2994 95.6194 29.6502C95.7456 30.0011 95.9349 30.2811 96.1872 30.4904C96.4427 30.6966 96.7628 30.7997 97.1475 30.7997ZM101.954 32V24.9091H103.575V26.0909H103.649C103.778 25.6816 103.999 25.3661 104.313 25.1445C104.63 24.9199 104.992 24.8075 105.398 24.8075C105.491 24.8075 105.594 24.8121 105.708 24.8214C105.825 24.8275 105.921 24.8383 105.998 24.8537V26.391C105.928 26.3664 105.815 26.3448 105.661 26.3263C105.511 26.3048 105.364 26.294 105.223 26.294C104.918 26.294 104.644 26.3602 104.401 26.4925C104.161 26.6218 103.972 26.8018 103.833 27.0327C103.695 27.2635 103.626 27.5297 103.626 27.8313V32H101.954ZM109.956 32.1385C109.245 32.1385 108.631 31.9908 108.114 31.6953C107.6 31.3968 107.204 30.9751 106.927 30.4304C106.65 29.8826 106.512 29.2378 106.512 28.4961C106.512 27.7667 106.65 27.1265 106.927 26.5756C107.208 26.0217 107.598 25.5908 108.1 25.283C108.602 24.9722 109.191 24.8168 109.868 24.8168C110.305 24.8168 110.718 24.8875 111.105 25.0291C111.496 25.1676 111.841 25.383 112.139 25.6754C112.441 25.9678 112.678 26.3402 112.85 26.7926C113.023 27.242 113.109 27.7775 113.109 28.3991V28.9116H107.297V27.7852H111.507C111.504 27.4651 111.435 27.1804 111.299 26.9311C111.164 26.6787 110.975 26.4802 110.731 26.3356C110.491 26.1909 110.211 26.1186 109.891 26.1186C109.55 26.1186 109.25 26.2017 108.991 26.3679C108.733 26.531 108.531 26.7464 108.386 27.0142C108.245 27.2789 108.172 27.5697 108.169 27.8867V28.87C108.169 29.2824 108.245 29.6364 108.396 29.9318C108.546 30.2242 108.757 30.4489 109.028 30.6058C109.299 30.7597 109.616 30.8366 109.979 30.8366C110.222 30.8366 110.442 30.8028 110.639 30.7351C110.836 30.6643 111.007 30.5612 111.152 30.4258C111.296 30.2904 111.405 30.1226 111.479 29.9226L113.04 30.098C112.941 30.5104 112.753 30.8705 112.476 31.1783C112.203 31.483 111.852 31.7199 111.424 31.8892C110.996 32.0554 110.507 32.1385 109.956 32.1385Z" fill="black"/>
<path d="M132 28.5L127.625 24.125L128.85 22.8562L131.125 25.1312V18H132.875V25.1312L135.15 22.8562L136.375 24.125L132 28.5ZM126.75 32C126.269 32 125.857 31.8288 125.514 31.4864C125.172 31.144 125.001 30.7318 125 30.25V27.625H126.75V30.25H137.25V27.625H139V30.25C139 30.7312 138.829 31.1434 138.486 31.4864C138.144 31.8294 137.732 32.0006 137.25 32H126.75Z" fill="#1E1E1E"/>
<g clip-path="url(#clip0_404_121)">
<path d="M15.446 6H34.554C38.6664 6 42 9.33359 42 13.446V32.554C42 36.6664 38.6664 40 34.554 40H15.446C11.3336 40 8 36.6664 8 32.554V13.446C8 9.33359 11.3336 6 15.446 6Z" fill="url(#paint0_linear_404_121)"/>
<path d="M18.8962 30.6778L18.8994 30.6788L17.7369 32.6923C17.3126 33.4272 16.3728 33.6791 15.6378 33.2547C14.9028 32.8304 14.651 31.8906 15.0753 31.1556L15.9317 29.6724L16.0139 29.53C16.1607 29.3191 16.5229 28.9549 17.2473 29.0235C17.2473 29.0235 18.9523 29.2085 19.0756 30.0946C19.0756 30.0946 19.0924 30.3861 18.8962 30.6778ZM35.3839 25.5353H31.759C31.5121 25.5187 31.4044 25.4305 31.3619 25.3792L31.3592 25.3746L27.4788 18.6535L27.4738 18.6568L27.2411 18.3231C26.8596 17.7398 26.254 19.2316 26.254 19.2316C25.5309 20.8939 26.3567 22.7837 26.6445 23.3549L32.0343 32.6903C32.4585 33.4251 33.3983 33.6771 34.1334 33.2526C34.8682 32.8283 35.1202 31.8885 34.6957 31.1535L33.3481 28.8192C33.3219 28.7626 33.2765 28.6091 33.5529 28.6084H35.3839C36.2326 28.6084 36.9206 27.9204 36.9206 27.0718C36.9206 26.2231 36.2326 25.5353 35.3839 25.5353ZM28.343 27.624C28.343 27.624 28.5365 28.6083 27.7879 28.6083H14.3872C13.5386 28.6083 12.8506 27.9203 12.8506 27.0716C12.8506 26.223 13.5386 25.535 14.3872 25.535H17.8324C18.3886 25.5029 18.5204 25.1817 18.5204 25.1817L18.5235 25.1833L23.0206 17.3941L23.0192 17.3939C23.1012 17.2434 23.0329 17.1011 23.0211 17.0787L21.5359 14.5062C21.1115 13.7714 21.3633 12.8315 22.0983 12.4073C22.8333 11.9831 23.7731 12.2346 24.1974 12.9696L24.8862 14.1627L25.5738 12.9717C25.9981 12.2369 26.9379 11.9849 27.6729 12.4094C28.4078 12.8339 28.6597 13.7734 28.2353 14.5084L21.9775 25.3472C21.9501 25.4132 21.9417 25.5168 22.1453 25.535H25.8859L25.8867 25.5715C25.8867 25.5715 28.0486 25.6051 28.343 27.624Z" fill="white"/>
</g>
<defs>
<linearGradient id="paint0_linear_404_121" x1="1708" y1="6" x2="1708" y2="3406" gradientUnits="userSpaceOnUse">
<stop stop-color="#17C9FB"/>
<stop offset="1" stop-color="#1A74E8"/>
</linearGradient>
<clipPath id="clip0_404_121">
<rect width="34" height="34" fill="white" transform="translate(8 6)"/>
</clipPath>
</defs>
</svg>
