<svg width="152" height="45" viewBox="0 0 152 45" fill="none" xmlns="http://www.w3.org/2000/svg">
<rect x="0.5" y="0.5" width="151" height="44" rx="11.5" fill="white" stroke="#989898"/>
<g clip-path="url(#clip0_403_120)">
<path d="M25.4776 22.209L11.1353 37.1239C11.2963 37.6905 11.5858 38.213 11.9814 38.6515C12.3771 39.09 12.8686 39.4329 13.4182 39.654C13.9679 39.875 14.5612 39.9685 15.1528 39.9271C15.7444 39.8857 16.3186 39.7106 16.8316 39.4151L32.9694 30.2923L25.4776 22.209Z" fill="#EA4335"/>
<path d="M39.9802 19.6736L33.0016 15.7061L25.1464 22.5481L33.0336 30.2708L39.959 26.3458C40.5725 26.0269 41.0864 25.5475 41.4449 24.9594C41.8035 24.3713 41.993 23.697 41.993 23.0096C41.993 22.3222 41.8035 21.648 41.4449 21.0599C41.0864 20.4718 40.5725 19.9923 39.959 19.6735L39.9802 19.6736Z" fill="#FBBC04"/>
<path d="M11.1352 8.82178C11.0486 9.1399 11.0054 9.46815 11.0069 9.79769V36.1479C11.0078 36.4774 11.0509 36.8053 11.1352 37.124L25.9692 22.5909L11.1352 8.82178Z" fill="#4285F4"/>
<path d="M25.5844 22.9729L33.0015 15.7063L16.8851 6.541C16.2787 6.18853 15.5891 6.00187 14.8864 6.00001C13.1426 5.99664 11.6095 7.14543 11.1353 8.81119L25.5844 22.9729Z" fill="#34A853"/>
</g>
<path d="M56.267 15.5C56.1967 15.2848 56.104 15.092 55.989 14.9215C55.8761 14.7489 55.7408 14.6019 55.5831 14.4805C55.4276 14.359 55.2507 14.2663 55.0526 14.2024C54.8544 14.1385 54.6371 14.1065 54.4006 14.1065C54.0128 14.1065 53.6602 14.2067 53.3427 14.407C53.0252 14.6072 52.7727 14.9023 52.5852 15.2923C52.3977 15.6822 52.304 16.1605 52.304 16.7273C52.304 17.294 52.3988 17.7724 52.5884 18.1623C52.7781 18.5522 53.0348 18.8473 53.3587 19.0476C53.6825 19.2479 54.0469 19.348 54.4517 19.348C54.8267 19.348 55.157 19.2681 55.4425 19.1083C55.7301 18.9464 55.9538 18.7184 56.1136 18.4244C56.2756 18.1282 56.3565 17.7798 56.3565 17.3793L56.5994 17.4304H54.6307V16.7273H57.1236V17.4304C57.1236 17.9695 57.0085 18.4382 56.7784 18.8366C56.5504 19.2351 56.2351 19.544 55.8324 19.7635C55.4318 19.9808 54.9716 20.0895 54.4517 20.0895C53.8722 20.0895 53.3629 19.9531 52.924 19.6804C52.4872 19.4077 52.1463 19.0199 51.9013 18.517C51.6584 18.0142 51.5369 17.4176 51.5369 16.7273C51.5369 16.2095 51.6062 15.744 51.7447 15.3306C51.8853 14.9151 52.0835 14.5614 52.3391 14.2695C52.5948 13.9776 52.8974 13.7539 53.2468 13.5984C53.5962 13.4428 53.9808 13.3651 54.4006 13.3651C54.7457 13.3651 55.0675 13.4173 55.3658 13.5217C55.6662 13.6239 55.9336 13.7699 56.168 13.9595C56.4045 14.147 56.6016 14.3718 56.7592 14.6339C56.9169 14.8938 57.0256 15.1825 57.0852 15.5H56.267ZM60.4371 20.1023C59.964 20.1023 59.556 19.9979 59.213 19.7891C58.8721 19.5781 58.6089 19.2841 58.4236 18.907C58.2403 18.5277 58.1487 18.0866 58.1487 17.5838C58.1487 17.081 58.2403 16.6378 58.4236 16.2543C58.6089 15.8686 58.8667 15.5682 59.197 15.353C59.5294 15.1357 59.9172 15.027 60.3604 15.027C60.616 15.027 60.8685 15.0696 61.1178 15.1548C61.3671 15.2401 61.594 15.3786 61.7986 15.5703C62.0031 15.7599 62.1661 16.0114 62.2876 16.3246C62.409 16.6378 62.4697 17.0234 62.4697 17.4815V17.8011H58.6856V17.1491H61.7027C61.7027 16.8722 61.6473 16.625 61.5365 16.4077C61.4278 16.1903 61.2723 16.0188 61.0699 15.8931C60.8696 15.7674 60.6331 15.7045 60.3604 15.7045C60.0599 15.7045 59.8 15.7791 59.5805 15.9283C59.3632 16.0753 59.1959 16.267 59.0787 16.5036C58.9616 16.7401 58.903 16.9936 58.903 17.2642V17.6989C58.903 18.0696 58.9669 18.3839 59.0947 18.6417C59.2247 18.8974 59.4047 19.0923 59.6349 19.2266C59.865 19.3587 60.1324 19.4247 60.4371 19.4247C60.6352 19.4247 60.8142 19.397 60.974 19.3416C61.1359 19.2841 61.2755 19.1989 61.3927 19.0859C61.5099 18.9709 61.6004 18.8281 61.6643 18.6577L62.393 18.8622C62.3163 19.1094 62.1874 19.3267 62.0063 19.5142C61.8252 19.6996 61.6015 19.8445 61.3351 19.9489C61.0688 20.0511 60.7694 20.1023 60.4371 20.1023ZM65.752 15.0909V15.7301H63.208V15.0909H65.752ZM63.9495 13.9148H64.7037V18.5938C64.7037 18.8068 64.7346 18.9666 64.7964 19.0732C64.8604 19.1776 64.9413 19.2479 65.0393 19.2841C65.1395 19.3182 65.2449 19.3352 65.3557 19.3352C65.4388 19.3352 65.507 19.331 65.5603 19.3224C65.6135 19.3118 65.6562 19.3033 65.6881 19.2969L65.8415 19.9744C65.7904 19.9936 65.719 20.0128 65.6274 20.032C65.5358 20.0533 65.4197 20.0639 65.279 20.0639C65.066 20.0639 64.8572 20.0181 64.6526 19.9265C64.4502 19.8349 64.2819 19.6953 64.1476 19.5078C64.0155 19.3203 63.9495 19.0838 63.9495 18.7983V13.9148ZM69.4179 20V15.0909H70.1721V20H69.4179ZM69.8014 14.2727C69.6544 14.2727 69.5276 14.2227 69.4211 14.1225C69.3167 14.0224 69.2645 13.902 69.2645 13.7614C69.2645 13.6207 69.3167 13.5004 69.4211 13.4002C69.5276 13.3001 69.6544 13.25 69.8014 13.25C69.9484 13.25 70.0741 13.3001 70.1785 13.4002C70.2851 13.5004 70.3383 13.6207 70.3383 13.7614C70.3383 13.902 70.2851 14.0224 70.1785 14.1225C70.0741 14.2227 69.9484 14.2727 69.8014 14.2727ZM73.6886 15.0909V15.7301H71.1445V15.0909H73.6886ZM71.886 13.9148H72.6403V18.5938C72.6403 18.8068 72.6712 18.9666 72.733 19.0732C72.7969 19.1776 72.8778 19.2479 72.9759 19.2841C73.076 19.3182 73.1815 19.3352 73.2923 19.3352C73.3754 19.3352 73.4435 19.331 73.4968 19.3224C73.5501 19.3118 73.5927 19.3033 73.6246 19.2969L73.7781 19.9744C73.7269 19.9936 73.6555 20.0128 73.5639 20.032C73.4723 20.0533 73.3562 20.0639 73.2156 20.0639C73.0025 20.0639 72.7937 20.0181 72.5891 19.9265C72.3867 19.8349 72.2184 19.6953 72.0842 19.5078C71.9521 19.3203 71.886 19.0838 71.886 18.7983V13.9148ZM79.3487 20.1023C78.9055 20.1023 78.5167 19.9968 78.1822 19.7859C77.8498 19.5749 77.5898 19.2798 77.4023 18.9006C77.217 18.5213 77.1243 18.0781 77.1243 17.571C77.1243 17.0597 77.217 16.6133 77.4023 16.2319C77.5898 15.8505 77.8498 15.5543 78.1822 15.3434C78.5167 15.1325 78.9055 15.027 79.3487 15.027C79.7919 15.027 80.1797 15.1325 80.5121 15.3434C80.8466 15.5543 81.1065 15.8505 81.2919 16.2319C81.4794 16.6133 81.5732 17.0597 81.5732 17.571C81.5732 18.0781 81.4794 18.5213 81.2919 18.9006C81.1065 19.2798 80.8466 19.5749 80.5121 19.7859C80.1797 19.9968 79.7919 20.1023 79.3487 20.1023ZM79.3487 19.4247C79.6854 19.4247 79.9624 19.3384 80.1797 19.1658C80.397 18.9933 80.5579 18.7663 80.6623 18.4851C80.7667 18.2038 80.8189 17.8991 80.8189 17.571C80.8189 17.2429 80.7667 16.9371 80.6623 16.6538C80.5579 16.3704 80.397 16.1413 80.1797 15.9666C79.9624 15.7919 79.6854 15.7045 79.3487 15.7045C79.0121 15.7045 78.7351 15.7919 78.5178 15.9666C78.3004 16.1413 78.1396 16.3704 78.0352 16.6538C77.9308 16.9371 77.8786 17.2429 77.8786 17.571C77.8786 17.8991 77.9308 18.2038 78.0352 18.4851C78.1396 18.7663 78.3004 18.9933 78.5178 19.1658C78.7351 19.3384 79.0121 19.4247 79.3487 19.4247ZM83.4788 17.0469V20H82.7245V15.0909H83.4532V15.858H83.5171C83.6322 15.6087 83.8069 15.4084 84.0413 15.2571C84.2757 15.1037 84.5782 15.027 84.949 15.027C85.2813 15.027 85.5722 15.0952 85.8215 15.2315C86.0708 15.3658 86.2646 15.5703 86.4031 15.8452C86.5416 16.1179 86.6109 16.4631 86.6109 16.8807V20H85.8566V16.9318C85.8566 16.5462 85.7565 16.2457 85.5562 16.0305C85.3559 15.8132 85.0811 15.7045 84.7316 15.7045C84.4909 15.7045 84.2757 15.7567 84.086 15.8612C83.8985 15.9656 83.7504 16.1179 83.6418 16.3182C83.5331 16.5185 83.4788 16.7614 83.4788 17.0469Z" fill="black"/>
<path d="M57.1484 25.5547C57.0833 25.3437 56.9935 25.1549 56.8789 24.9883C56.7669 24.819 56.6315 24.6745 56.4727 24.5547C56.3164 24.4349 56.1367 24.3451 55.9336 24.2852C55.7305 24.2227 55.5091 24.1914 55.2695 24.1914C54.8398 24.1914 54.457 24.2995 54.1211 24.5156C53.7852 24.7318 53.5208 25.0495 53.3281 25.4687C53.138 25.8854 53.043 26.3932 53.043 26.9922C53.043 27.5964 53.138 28.1081 53.3281 28.5273C53.5182 28.9466 53.7826 29.2656 54.1211 29.4844C54.4596 29.7005 54.8529 29.8086 55.3008 29.8086C55.707 29.8086 56.0586 29.7305 56.3555 29.5742C56.6549 29.418 56.8854 29.1966 57.0469 28.9102C57.2083 28.6211 57.2891 28.2826 57.2891 27.8945L57.6172 27.9453H55.4453V26.8125H58.6914V27.7734C58.6914 28.4583 58.5456 29.0508 58.2539 29.5508C57.9622 30.0508 57.5612 30.4362 57.0508 30.707C56.5404 30.9753 55.9544 31.1094 55.293 31.1094C54.556 31.1094 53.9089 30.944 53.3516 30.6133C52.7969 30.2799 52.3633 29.8073 52.0508 29.1953C51.7409 28.5807 51.5859 27.8516 51.5859 27.0078C51.5859 26.362 51.6771 25.7852 51.8594 25.2773C52.0443 24.7695 52.3021 24.3385 52.6328 23.9844C52.9635 23.6276 53.3516 23.3568 53.7969 23.1719C54.2422 22.9844 54.7266 22.8906 55.25 22.8906C55.6927 22.8906 56.1055 22.9557 56.4883 23.0859C56.8711 23.2135 57.2109 23.3958 57.5078 23.6328C57.8073 23.8698 58.0534 24.151 58.2461 24.4766C58.4388 24.8021 58.5651 25.1615 58.625 25.5547H57.1484ZM62.6475 31.1172C62.0615 31.1172 61.5537 30.9883 61.124 30.7305C60.6943 30.4727 60.361 30.112 60.124 29.6484C59.8896 29.1849 59.7725 28.6432 59.7725 28.0234C59.7725 27.4036 59.8896 26.8607 60.124 26.3945C60.361 25.9284 60.6943 25.5664 61.124 25.3086C61.5537 25.0508 62.0615 24.9219 62.6475 24.9219C63.2334 24.9219 63.7412 25.0508 64.1709 25.3086C64.6006 25.5664 64.9326 25.9284 65.167 26.3945C65.404 26.8607 65.5225 27.4036 65.5225 28.0234C65.5225 28.6432 65.404 29.1849 65.167 29.6484C64.9326 30.112 64.6006 30.4727 64.1709 30.7305C63.7412 30.9883 63.2334 31.1172 62.6475 31.1172ZM62.6553 29.9844C62.973 29.9844 63.2386 29.8971 63.4521 29.7227C63.6657 29.5456 63.8245 29.3086 63.9287 29.0117C64.0355 28.7148 64.0889 28.3841 64.0889 28.0195C64.0889 27.6523 64.0355 27.3203 63.9287 27.0234C63.8245 26.724 63.6657 26.4857 63.4521 26.3086C63.2386 26.1315 62.973 26.043 62.6553 26.043C62.3298 26.043 62.0589 26.1315 61.8428 26.3086C61.6292 26.4857 61.4691 26.724 61.3623 27.0234C61.2581 27.3203 61.2061 27.6523 61.2061 28.0195C61.2061 28.3841 61.2581 28.7148 61.3623 29.0117C61.4691 29.3086 61.6292 29.5456 61.8428 29.7227C62.0589 29.8971 62.3298 29.9844 62.6553 29.9844ZM69.3398 31.1172C68.7539 31.1172 68.2461 30.9883 67.8164 30.7305C67.3867 30.4727 67.0534 30.112 66.8164 29.6484C66.582 29.1849 66.4648 28.6432 66.4648 28.0234C66.4648 27.4036 66.582 26.8607 66.8164 26.3945C67.0534 25.9284 67.3867 25.5664 67.8164 25.3086C68.2461 25.0508 68.7539 24.9219 69.3398 24.9219C69.9258 24.9219 70.4336 25.0508 70.8633 25.3086C71.293 25.5664 71.625 25.9284 71.8594 26.3945C72.0964 26.8607 72.2148 27.4036 72.2148 28.0234C72.2148 28.6432 72.0964 29.1849 71.8594 29.6484C71.625 30.112 71.293 30.4727 70.8633 30.7305C70.4336 30.9883 69.9258 31.1172 69.3398 31.1172ZM69.3477 29.9844C69.6654 29.9844 69.931 29.8971 70.1445 29.7227C70.3581 29.5456 70.5169 29.3086 70.6211 29.0117C70.7279 28.7148 70.7813 28.3841 70.7813 28.0195C70.7813 27.6523 70.7279 27.3203 70.6211 27.0234C70.5169 26.724 70.3581 26.4857 70.1445 26.3086C69.931 26.1315 69.6654 26.043 69.3477 26.043C69.0221 26.043 68.7513 26.1315 68.5352 26.3086C68.3216 26.4857 68.1615 26.724 68.0547 27.0234C67.9505 27.3203 67.8984 27.6523 67.8984 28.0195C67.8984 28.3841 67.9505 28.7148 68.0547 29.0117C68.1615 29.3086 68.3216 29.5456 68.5352 29.7227C68.7513 29.8971 69.0221 29.9844 69.3477 29.9844ZM76.0244 33.375C75.5166 33.375 75.0804 33.306 74.7158 33.168C74.3512 33.0326 74.0583 32.8503 73.8369 32.6211C73.6156 32.3919 73.4619 32.138 73.376 31.8594L74.6494 31.5508C74.7067 31.668 74.79 31.7839 74.8994 31.8984C75.0088 32.0156 75.1559 32.112 75.3408 32.1875C75.5283 32.2656 75.764 32.3047 76.0479 32.3047C76.4489 32.3047 76.7809 32.207 77.0439 32.0117C77.307 31.819 77.4385 31.5013 77.4385 31.0586V29.9219H77.3682C77.2952 30.0677 77.1885 30.2174 77.0479 30.3711C76.9098 30.5247 76.7262 30.6536 76.4971 30.7578C76.2705 30.862 75.9854 30.9141 75.6416 30.9141C75.1807 30.9141 74.7627 30.806 74.3877 30.5898C74.0153 30.3711 73.7184 30.0456 73.4971 29.6133C73.2783 29.1784 73.1689 28.6341 73.1689 27.9805C73.1689 27.3216 73.2783 26.7656 73.4971 26.3125C73.7184 25.8568 74.0166 25.5117 74.3916 25.2773C74.7666 25.0404 75.1846 24.9219 75.6455 24.9219C75.9971 24.9219 76.2861 24.9818 76.5127 25.1016C76.7419 25.2187 76.9242 25.3607 77.0596 25.5273C77.195 25.6914 77.2979 25.8464 77.3682 25.9922H77.4463V25H78.8408V31.0977C78.8408 31.6107 78.7184 32.0352 78.4736 32.3711C78.2288 32.707 77.8942 32.9583 77.4697 33.125C77.0452 33.2917 76.5635 33.375 76.0244 33.375ZM76.0361 29.8047C76.3356 29.8047 76.5908 29.7318 76.8018 29.5859C77.0127 29.4401 77.1729 29.2305 77.2822 28.957C77.3916 28.6836 77.4463 28.3555 77.4463 27.9727C77.4463 27.5951 77.3916 27.2643 77.2822 26.9805C77.1755 26.6966 77.0166 26.4766 76.8057 26.3203C76.5973 26.1615 76.3408 26.082 76.0361 26.082C75.721 26.082 75.458 26.1641 75.2471 26.3281C75.0361 26.4922 74.8773 26.7174 74.7705 27.0039C74.6637 27.2878 74.6104 27.6107 74.6104 27.9727C74.6104 28.3398 74.6637 28.6615 74.7705 28.9375C74.8799 29.2109 75.04 29.4245 75.251 29.5781C75.4645 29.7292 75.7262 29.8047 76.0361 29.8047ZM81.7041 23V31H80.29V23H81.7041ZM85.8145 31.1172C85.2129 31.1172 84.6934 30.9922 84.2559 30.7422C83.821 30.4896 83.4863 30.1328 83.252 29.6719C83.0176 29.2083 82.9004 28.6628 82.9004 28.0352C82.9004 27.418 83.0176 26.8763 83.252 26.4102C83.4889 25.9414 83.8197 25.5768 84.2441 25.3164C84.6686 25.0534 85.1673 24.9219 85.7402 24.9219C86.11 24.9219 86.459 24.9818 86.7871 25.1016C87.1178 25.2187 87.4095 25.401 87.6621 25.6484C87.9173 25.8958 88.1178 26.2109 88.2637 26.5937C88.4095 26.974 88.4824 27.4271 88.4824 27.9531V28.3867H83.5645V27.4336H87.127C87.1243 27.1628 87.0658 26.9219 86.9512 26.7109C86.8366 26.4974 86.6764 26.3294 86.4707 26.207C86.2676 26.0846 86.0306 26.0234 85.7598 26.0234C85.4707 26.0234 85.2168 26.0937 84.998 26.2344C84.7793 26.3724 84.6087 26.5547 84.4863 26.7812C84.3665 27.0052 84.3053 27.2513 84.3027 27.5195V28.3516C84.3027 28.7005 84.3665 29 84.4941 29.25C84.6217 29.4974 84.8001 29.6875 85.0293 29.8203C85.2585 29.9505 85.5267 30.0156 85.834 30.0156C86.0397 30.0156 86.2259 29.987 86.3926 29.9297C86.5592 29.8698 86.7038 29.7826 86.8262 29.668C86.9486 29.5534 87.041 29.4115 87.1035 29.2422L88.4238 29.3906C88.3405 29.7396 88.1816 30.0443 87.9473 30.3047C87.7155 30.5625 87.4186 30.763 87.0566 30.9062C86.6947 31.0469 86.2806 31.1172 85.8145 31.1172Z" fill="black"/>
<path d="M92.4697 31V23H95.4697C96.0843 23 96.5999 23.1146 97.0166 23.3437C97.4359 23.5729 97.7523 23.888 97.9658 24.2891C98.182 24.6875 98.29 25.1406 98.29 25.6484C98.29 26.1615 98.182 26.6172 97.9658 27.0156C97.7497 27.4141 97.4307 27.7279 97.0088 27.957C96.5869 28.1836 96.0674 28.2969 95.4502 28.2969H93.4619V27.1055H95.2549C95.6143 27.1055 95.9085 27.043 96.1377 26.918C96.3669 26.793 96.5361 26.6211 96.6455 26.4023C96.7575 26.1836 96.8135 25.9323 96.8135 25.6484C96.8135 25.3646 96.7575 25.1146 96.6455 24.8984C96.5361 24.6823 96.3656 24.5143 96.1338 24.3945C95.9046 24.2721 95.609 24.2109 95.2471 24.2109H93.9189V31H92.4697Z" fill="#EA4335"/>
<path d="M100.9 23V31H99.4863V23H100.9Z" fill="#FBBC04"/>
<path d="M104.081 31.1211C103.701 31.1211 103.358 31.0534 103.054 30.918C102.752 30.7799 102.512 30.5768 102.335 30.3086C102.16 30.0404 102.073 29.7096 102.073 29.3164C102.073 28.9779 102.136 28.6979 102.261 28.4766C102.386 28.2552 102.556 28.0781 102.772 27.9453C102.989 27.8125 103.232 27.7122 103.503 27.6445C103.776 27.5742 104.059 27.5234 104.351 27.4922C104.702 27.4557 104.987 27.4232 105.206 27.3945C105.425 27.3633 105.584 27.3164 105.683 27.2539C105.784 27.1888 105.835 27.0885 105.835 26.9531V26.9297C105.835 26.6354 105.748 26.4076 105.573 26.2461C105.399 26.0846 105.147 26.0039 104.819 26.0039C104.473 26.0039 104.198 26.0794 103.995 26.2305C103.795 26.3815 103.659 26.5599 103.589 26.7656L102.269 26.5781C102.373 26.2135 102.545 25.9089 102.784 25.6641C103.024 25.4167 103.317 25.2318 103.663 25.1094C104.009 24.9844 104.392 24.9219 104.812 24.9219C105.101 24.9219 105.388 24.9557 105.675 25.0234C105.961 25.0911 106.223 25.2031 106.46 25.3594C106.697 25.513 106.887 25.7227 107.03 25.9883C107.176 26.2539 107.249 26.5859 107.249 26.9844V31H105.89V30.1758H105.843C105.757 30.3424 105.636 30.4987 105.479 30.6445C105.326 30.7878 105.132 30.9036 104.897 30.9922C104.666 31.0781 104.394 31.1211 104.081 31.1211ZM104.448 30.082C104.732 30.082 104.978 30.026 105.187 29.9141C105.395 29.7995 105.555 29.6484 105.667 29.4609C105.782 29.2734 105.839 29.069 105.839 28.8477V28.1406C105.795 28.1771 105.719 28.2109 105.612 28.2422C105.508 28.2734 105.391 28.3008 105.261 28.3242C105.131 28.3477 105.002 28.3685 104.874 28.3867C104.746 28.4049 104.636 28.4206 104.542 28.4336C104.331 28.4622 104.142 28.5091 103.976 28.5742C103.809 28.6393 103.677 28.7305 103.581 28.8477C103.485 28.9622 103.437 29.1107 103.437 29.293C103.437 29.5534 103.532 29.75 103.722 29.8828C103.912 30.0156 104.154 30.082 104.448 30.082Z" fill="#34A853"/>
<path d="M109.335 33.25C109.142 33.25 108.964 33.2344 108.8 33.2031C108.638 33.1745 108.509 33.1406 108.413 33.1016L108.741 32C108.947 32.0599 109.131 32.0885 109.292 32.0859C109.453 32.0833 109.595 32.0326 109.718 31.9336C109.843 31.8372 109.948 31.6758 110.034 31.4492L110.155 31.125L107.979 25H109.479L110.862 29.5312H110.925L112.312 25H113.815L111.413 31.7266C111.301 32.0443 111.153 32.3164 110.968 32.543C110.783 32.7721 110.556 32.9466 110.288 33.0664C110.022 33.1888 109.705 33.25 109.335 33.25Z" fill="#4285F4"/>
<path d="M133 27.5L128.625 23.125L129.85 21.8562L132.125 24.1312V17H133.875V24.1312L136.15 21.8562L137.375 23.125L133 27.5ZM127.75 31C127.269 31 126.857 30.8288 126.514 30.4864C126.172 30.144 126.001 29.7318 126 29.25V26.625H127.75V29.25H138.25V26.625H140V29.25C140 29.7312 139.829 30.1434 139.486 30.4864C139.144 30.8294 138.732 31.0006 138.25 31H127.75Z" fill="#1E1E1E"/>
<defs>
<clipPath id="clip0_403_120">
<rect width="31" height="34" fill="white" transform="translate(11 6)"/>
</clipPath>
</defs>
</svg>
